<!-- Generator: Adobe Illustrator 21.0.0, SVG Export Plug-In  -->
<svg version="1.1"
	 xmlns="http://www.w3.org/2000/svg" xmlns:xlink="http://www.w3.org/1999/xlink" xmlns:a="http://ns.adobe.com/AdobeSVGViewerExtensions/3.0/"
	 x="0px" y="0px" width="326.7px" height="100.3px" viewBox="0 0 326.7 100.3" style="enable-background:new 0 0 326.7 100.3;"
	 xml:space="preserve">
<style type="text/css">
	.st0{fill:#D42D2D;}
	.st1{fill:#FFFFFF;}
	.st2{opacity:0.9;fill:#FFFFFF;}
	.st3{font-family:'ProximaNova-Regular';}
	.st4{font-size:22px;}
	.st5{opacity:0.9;}
	.st6{letter-spacing:-1;}
</style>
<defs>
</defs>
<g>
	<g>
		<path class="st0" d="M61.1,21c0.7-0.3,1.5-0.7,2.2-0.9l-0.1-3.6l2.5-0.7l1.7,3.1c0.8-0.1,1.6-0.2,2.4-0.3l0.9-3.5h2.6l0.9,3.5
			c0.8,0.1,1.6,0.2,2.4,0.3l1.7-3.1l2.5,0.7L80.7,20c0.8,0.3,1.5,0.6,2.2,0.9l0.4-0.4L72,0L60.7,20.6L61.1,21z"/>
		<path class="st1" d="M26,56c3.1,0,5.9-0.7,8.4-2.2c2.6-1.5,4.7-3.4,6.3-5.9l6.3,4.7c-2.4,3.3-5.4,5.8-9,7.8
			c-3.6,1.9-7.6,2.9-12,2.9c-3.6,0-7-0.7-10.1-2.1c-3.2-1.4-5.9-3.3-8.3-5.6c-2.4-2.4-4.2-5.1-5.6-8.3C0.7,44,0,40.6,0,36.9
			c0-3.6,0.7-7.1,2-10.2c1.4-3.2,3.2-6,5.6-8.3c2.3-2.4,5.1-4.3,8.3-5.6c3.2-1.4,6.5-2.1,10.1-2.1c4.4,0,8.3,1,12,2.9
			c3.6,1.9,6.6,4.5,9,7.8l-6.3,4.7c-1.6-2.4-3.7-4.4-6.3-5.9c-2.6-1.5-5.4-2.2-8.4-2.2c-2.5,0-4.8,0.5-7,1.5c-2.2,1-4.1,2.4-5.7,4.1
			c-1.6,1.7-2.9,3.7-3.9,6c-1,2.3-1.4,4.8-1.4,7.4c0,2.6,0.5,5.1,1.4,7.4c1,2.3,2.3,4.3,3.9,6c1.6,1.7,3.5,3.1,5.7,4.1
			C21.2,55.5,23.5,56,26,56z"/>
		<path class="st1" d="M148.4,27.9c2.3,1.5,4,3.4,5.4,5.9c1.3,2.4,2,5.1,2,7.9v21.6h-7.4v-7.8V41.7c0-1.2-0.2-2.4-0.7-3.5
			c-0.5-1.1-1.1-2.1-2-2.9c-0.8-0.8-1.8-1.5-2.9-2c-1.1-0.5-2.3-0.7-3.5-0.7c-1.2,0-2.4,0.2-3.6,0.7c-1.1,0.5-2.1,1.1-2.9,2
			c-0.8,0.8-1.5,1.8-2,2.9c-0.5,1.1-0.7,2.3-0.7,3.5v13.9v7.8h-7.4v-7.8V41.7c0-1.2-0.2-2.4-0.7-3.5c-0.5-1.1-1.1-2.1-2-2.9
			c-0.8-0.8-1.8-1.5-2.9-2c-1.1-0.5-2.3-0.7-3.5-0.7c-1.2,0-2.4,0.2-3.6,0.7c-1.1,0.5-2.1,1.1-2.9,2c-0.8,0.8-1.5,1.8-2,2.9
			c-0.5,1.1-0.7,2.3-0.7,3.5v13.9v7.8h-7.4V41.7V25.2h7.4v2.7c1.3-0.9,2.8-1.5,4.4-2c1.6-0.5,3.2-0.7,4.8-0.7c1.7,0,3.3,0.2,4.8,0.7
			c1.6,0.5,3,1.1,4.3,2c1.4,0.9,2.6,2.1,3.7,3.5c1.1-1.3,2.3-2.5,3.7-3.5c1.3-0.9,2.8-1.5,4.3-2c1.6-0.5,3.2-0.7,4.8-0.7
			c1.7,0,3.3,0.2,4.9,0.7C145.7,26.4,147.1,27,148.4,27.9z"/>
		<path class="st1" d="M180.8,25.4c2.6,0,5.1,0.5,7.4,1.5c2.3,1,4.3,2.3,6,4.1c1.7,1.7,3.1,3.7,4.1,6c1,2.3,1.5,4.8,1.5,7.4
			c0,2.6-0.5,5.1-1.5,7.4c-1,2.3-2.3,4.3-4.1,6c-1.7,1.7-3.7,3.1-6,4.1c-2.3,1-4.8,1.5-7.4,1.5c-2.6,0-5.1-0.5-7.4-1.5
			c-2.3-1-4.3-2.3-6-4.1c-1.7-1.7-3.1-3.7-4.1-6c-1-2.3-1.5-4.8-1.5-7.4v-0.1V0h7.4l-0.1,29.3c1.6-1.2,3.4-2.2,5.4-2.9
			C176.5,25.7,178.5,25.4,180.8,25.4z M180.8,55.9c1.6,0,3.1-0.3,4.5-0.9c1.4-0.6,2.6-1.4,3.7-2.5s1.9-2.3,2.5-3.7
			c0.6-1.4,0.9-2.9,0.9-4.5s-0.3-3.1-0.9-4.5c-0.6-1.4-1.4-2.6-2.5-3.7c-1.1-1.1-2.3-1.9-3.7-2.5c-1.4-0.6-2.9-0.9-4.5-0.9
			c-1.6,0-3.1,0.3-4.5,0.9c-1.4,0.6-2.6,1.4-3.7,2.5c-1.1,1.1-1.9,2.3-2.5,3.7c-0.6,1.4-0.9,2.9-0.9,4.5v0.1c0,1.6,0.3,3.1,0.9,4.5
			c0.6,1.4,1.5,2.6,2.5,3.7c1,1.1,2.3,1.9,3.7,2.5C177.7,55.6,179.2,55.9,180.8,55.9z"/>
		<path class="st1" d="M206.9,21.4V14h7.4v7.4H206.9z M214.3,25.3v37.9h-7.4V25.3H214.3z"/>
		<path class="st1" d="M247.1,27.8c2.3,1.5,4.1,3.5,5.4,5.9c1.3,2.4,2,5.1,2,7.9v21.6h-7.4v-7.8V41.7c0-1.2-0.2-2.4-0.7-3.6
			c-0.5-1.1-1.1-2.1-2-2.9c-0.8-0.8-1.8-1.5-2.9-2c-1.1-0.5-2.3-0.7-3.5-0.7c-1.3,0-2.4,0.2-3.6,0.7c-1.1,0.5-2.1,1.1-2.9,2
			c-0.8,0.8-1.5,1.8-1.9,2.9c-0.5,1.1-0.7,2.3-0.7,3.6v13.8v7.8h-7.4V41.7V25.1h7.4l0.1,2.7c1.3-0.9,2.7-1.5,4.3-2
			c1.6-0.5,3.2-0.7,4.9-0.7c1.7,0,3.3,0.2,4.9,0.7C244.3,26.3,245.8,27,247.1,27.8z"/>
		<path class="st1" d="M278.6,25.4c2.6,0,5.1,0.5,7.4,1.5c2.3,1,4.4,2.4,6.1,4.1c1.7,1.7,3.1,3.8,4.1,6.1c1,2.3,1.5,4.8,1.5,7.5
			v18.6h-7.4v-3.5c-1.6,1.2-3.4,2.2-5.4,2.9c-2,0.7-4.1,1.1-6.3,1.1c-2.6,0-5.1-0.5-7.4-1.5c-2.3-1-4.4-2.4-6.1-4.1
			c-1.7-1.7-3.1-3.7-4.1-6.1c-1-2.3-1.5-4.8-1.5-7.4c0-2.6,0.5-5.1,1.5-7.5c1-2.3,2.4-4.4,4.1-6.1c1.7-1.7,3.7-3.1,6.1-4.1
			C273.5,25.9,276,25.4,278.6,25.4z M278.6,56.3c1.6,0,3.2-0.3,4.6-0.9c1.4-0.6,2.6-1.5,3.7-2.5c1.1-1.1,1.9-2.3,2.5-3.7
			c0.6-1.4,0.9-2.9,0.9-4.5c0-1.6-0.3-3.2-0.9-4.6c-0.6-1.4-1.5-2.7-2.5-3.7c-1.1-1.1-2.3-1.9-3.7-2.5c-1.4-0.6-2.9-0.9-4.6-0.9
			c-1.6,0-3.2,0.3-4.6,0.9c-1.4,0.6-2.7,1.5-3.7,2.5c-1.1,1.1-1.9,2.3-2.5,3.7c-0.6,1.4-0.9,3-0.9,4.6c0,1.6,0.3,3.1,0.9,4.5
			c0.6,1.4,1.5,2.7,2.5,3.7c1.1,1.1,2.3,1.9,3.7,2.5C275.5,56,277,56.3,278.6,56.3z"/>
		<path class="st1" d="M326.7,55.9c-1.4,0-2.8-0.3-4.1-0.9c-1.4-0.6-2.6-1.4-3.7-2.5s-1.9-2.3-2.5-3.7c-0.6-1.4-0.9-2.9-0.9-4.5
			v-0.1c0-0.8,0-11.4,0-22.1h6.9v-7.4h-6.9c0-8.1,0-14.8,0-14.8h-7.4v14.8h-7v7.4h7v22.1v0.1c0,2.6,0.5,5.1,1.5,7.4
			c1,2.3,2.3,4.3,4.1,6c1.7,1.7,3.7,3.1,6,4.1c2.2,0.9,4.6,1.4,7.1,1.5V55.9z"/>
		<path class="st0" d="M72,25.3c2.6,0,5.1,0.5,7.4,1.5c2.3,1,4.3,2.3,6,4.1c1.7,1.7,3.1,3.7,4.1,6c1,2.3,1.5,4.8,1.5,7.4
			c0,2.6-0.5,5.1-1.5,7.4c-1,2.3-2.3,4.3-4.1,6c-1.7,1.7-3.7,3.1-6,4.1c-2.3,1-4.8,1.5-7.4,1.5c-2.6,0-5.1-0.5-7.4-1.5
			c-2.3-1-4.3-2.3-6-4.1c-1.7-1.7-3.1-3.7-4.1-6c-1-2.3-1.5-4.8-1.5-7.4c0-2.6,0.5-5.1,1.5-7.4c1-2.3,2.3-4.3,4.1-6
			c1.7-1.7,3.7-3.1,6-4.1C66.9,25.8,69.3,25.3,72,25.3z M72,55.8c1.6,0,3.1-0.3,4.5-0.9c1.4-0.6,7.9,3.8,8.9,2.8
			c1-1.1-3.4-7.5-2.8-8.9c0.6-1.4,0.9-2.9,0.9-4.5c0-1.6-0.3-3.1-0.9-4.5c-0.6-1.4-1.4-2.6-2.5-3.7c-1.1-1.1-2.3-1.9-3.7-2.5
			c-1.4-0.6-2.9-0.9-4.5-0.9c-1.6,0-3.1,0.3-4.5,0.9c-1.4,0.6-2.6,1.4-3.7,2.5s-1.9,2.3-2.5,3.7c-0.6,1.4-0.9,2.9-0.9,4.5
			c0,1.6,0.3,3.1,0.9,4.5c0.6,1.4,1.5,2.7,2.5,3.7c1.1,1.1,2.3,1.9,3.7,2.5C68.9,55.5,70.4,55.8,72,55.8z"/>
	</g>
	<text transform="matrix(1 0 0 1 9.0969 94.8047)" class="st2 st3 st4">сеть партнерских программ CPA</text>
</g>
</svg>
