<!-- Generator: Adobe Illustrator 21.0.0, SVG Export Plug-In  -->
<svg version="1.1"
	 xmlns="http://www.w3.org/2000/svg" xmlns:xlink="http://www.w3.org/1999/xlink" xmlns:a="http://ns.adobe.com/AdobeSVGViewerExtensions/3.0/"
	 x="0px" y="0px" width="93px" height="98.3px" viewBox="0 0 93 98.3" style="enable-background:new 0 0 93 98.3;"
	 xml:space="preserve">
<style type="text/css">
	.st0{fill:none;stroke:#7DBDFF;stroke-width:3;stroke-miterlimit:10;}
</style>
<defs>
</defs>
<g>
	<g>
		<path class="st0" d="M78.6,28.2c9.6,0,12.9,2.5,12.9,10.7v49.3c0,4.7-3.9,8.6-8.6,8.6H1.5V19.6"/>
		<path class="st0" d="M45.6,11.1h33v9.3v7.9H10.1c-4.7,0-8.6-3.9-8.6-8.6"/>
		<path class="st0" d="M1.5,19.6L1.5,19.6c0-4.7,3.9-8.6,8.6-8.6h18.3"/>
		<path class="st0" d="M89.4,73.2h-30c-5.9,0-10.7-4.8-10.7-10.7l0,0c0-5.9,4.8-10.7,10.7-10.7h30"/>
		<circle class="st0" cx="61.5" cy="62.5" r="4.3"/>
	</g>
	<polyline class="st0" points="68.8,27.6 33.1,2.1 17,27.1 	"/>
</g>
</svg>
