<svg xmlns="http://www.w3.org/2000/svg" viewBox="0 0 63 63"><defs><style>.cls-1{fill:#fff;}.cls-2{fill:none;stroke:#fff;stroke-miterlimit:10;stroke-width:3px;}</style></defs><title>Ресурс 23mdpi</title><g id="Слой_2" data-name="Слой 2"><g id="Слой_2-2" data-name="Слой 2"><path class="cls-1" d="M43.33,45.9H19.67a4,4,0,0,1-2.57-2.57V19.67a4,4,0,0,1,2.57-2.57H43.33a4,4,0,0,1,2.57,2.57V43.33A4.05,4.05,0,0,1,43.33,45.9ZM20.43,29.33c0,4,0,7.91,0,11.83,0,1,.38,1.41,1.44,1.41H41.15c1.05,0,1.42-.37,1.42-1.43q0-5.59,0-11.18c0-.21,0-.41,0-.62h-2.4c.73,4-.41,7.33-3.84,9.58a8.25,8.25,0,0,1-9.35.16c-3.62-2.22-4.84-5.59-4.1-9.75Zm11-3.36A5.53,5.53,0,1,0,37,31.51,5.55,5.55,0,0,0,31.47,26Zm8.37-5.53c-.53,0-1.07,0-1.6,0A1.13,1.13,0,0,0,37,21.63q0,1.57,0,3.14A1.13,1.13,0,0,0,38.2,26q1.6,0,3.21,0a1.11,1.11,0,0,0,1.16-1.18c0-1.07,0-2.14,0-3.21a1.09,1.09,0,0,0-1.18-1.15C40.87,20.42,40.36,20.43,39.84,20.43Z"/><path class="cls-2" d="M31.5,61.5a30,30,0,1,1,30-30A30,30,0,0,1,31.5,61.5Z"/></g></g></svg>