<svg xmlns="http://www.w3.org/2000/svg" viewBox="0 0 63 63"><defs><style>.cls-1{fill:#fff;}.cls-2{fill:none;stroke:#fff;stroke-miterlimit:10;stroke-width:3px;}</style></defs><title>Ресурс 25mdpi</title><g id="Слой_2" data-name="Слой 2"><g id="Слой_2-2" data-name="Слой 2"><path class="cls-1" d="M25.57,25.88h3V23.15c0-1.2,0-3,1-4.19a5.52,5.52,0,0,1,4.69-2,20.38,20.38,0,0,1,5.42.5l-.76,4.15a11,11,0,0,0-2.43-.34c-1.17,0-2.22.39-2.22,1.48v3.16h4.82l-.34,4H34.25V42.52H28.59V29.93h-3Z"/><path class="cls-2" d="M31.5,61.5a30,30,0,1,1,30-30A30,30,0,0,1,31.5,61.5Z"/></g></g></svg>