<svg xmlns="http://www.w3.org/2000/svg" viewBox="0 0 92 92"><defs><style>.cls-1{fill:#299bd2;}.cls-2,.cls-3{fill:none;stroke:#299bd2;stroke-miterlimit:10;stroke-width:3px;}.cls-3{stroke-linecap:round;}</style></defs><title>Ресурс 13mdpi</title><g id="Слой_2" data-name="Слой 2"><g id="Слой_2-2" data-name="Слой 2"><path class="cls-1" d="M88,3a1,1,0,0,1,1,1V88a1,1,0,0,1-1,1H4a1,1,0,0,1-1-1V4A1,1,0,0,1,4,3H88m0-3H4A4,4,0,0,0,0,4V88a4,4,0,0,0,4,4H88a4,4,0,0,0,4-4V4a4,4,0,0,0-4-4Z"/><line class="cls-2" y1="12.5" x2="90" y2="12.5"/><circle class="cls-1" cx="6.5" cy="6.5" r="2"/><circle class="cls-1" cx="12.5" cy="6.5" r="2"/><circle class="cls-1" cx="18.5" cy="6.5" r="2"/><polyline class="cls-3" points="39 73 46 79 53 73"/><rect class="cls-2" x="10" y="22" width="72" height="38"/></g></g></svg>