<svg xmlns="http://www.w3.org/2000/svg" viewBox="0 0 93.93 90"><defs><style>.cls-1,.cls-2{fill:none;stroke:#299bd2;stroke-miterlimit:10;}.cls-1{stroke-width:3px;}.cls-2{stroke-width:2px;}</style></defs><title>Ресурс 17mdpi</title><g id="Слой_2" data-name="Слой 2"><g id="Слой_2-2" data-name="Слой 2"><path class="cls-1" d="M1.47,89s4.34-20,12-24.32c4.34-2.48,16.86-3.21,21-6,3.75-2.54,4-8.72,4-8.72"/><path class="cls-1" d="M92.47,89s-4.34-20-12-24.32c-4.34-2.48-16.86-3.21-21-6-3.75-2.54-4-8.72-4-8.72"/><ellipse class="cls-1" cx="46.96" cy="26.75" rx="21.49" ry="25.25"/><path class="cls-1" d="M29.37,60.63s18.1,16.87,34.86-.09"/><path class="cls-2" d="M39.47,67.1l6.53,6a2.2,2.2,0,0,0,2.94,0l6.53-6"/><path class="cls-1" d="M25.7,30.5c3.75-1.78,6.51-11,6.51-11s8.5,10,21.25,7.25c4.89-1.05,8-6.25,8-6.25s2.76,8.25,6.61,11"/><line class="cls-1" x1="0.47" y1="88.5" x2="93.47" y2="88.5"/></g></g></svg>