<svg xmlns="http://www.w3.org/2000/svg" viewBox="0 0 96 76"><defs><style>.cls-1,.cls-2{fill:none;stroke:#299bd2;stroke-miterlimit:10;stroke-width:3px;}.cls-2{stroke-linecap:round;}</style></defs><title>Ресурс 15mdpi</title><g id="Слой_2" data-name="Слой 2"><g id="Слой_2-2" data-name="Слой 2"><path class="cls-1" d="M0,34.5H10.5a2,2,0,0,0,2-2V3.5a2,2,0,0,1,2-2h6a2,2,0,0,1,2,2v48a2,2,0,0,0,2,2h7a2,2,0,0,0,2-2v-27a2,2,0,0,1,2-2H43"/><circle class="cls-1" cx="49" cy="22" r="5"/><path class="cls-1" d="M96,41.5H85.5a2,2,0,0,0-2,2v29a2,2,0,0,1-2,2h-6a2,2,0,0,1-2-2v-48a2,2,0,0,0-2-2h-7a2,2,0,0,0-2,2v27a2,2,0,0,1-2,2H53"/><circle class="cls-1" cx="49" cy="53" r="5"/><polyline class="cls-2" points="49 28 45.51 33.33 50.38 37.5 45.51 42.08 50 47"/></g></g></svg>