<svg xmlns="http://www.w3.org/2000/svg" viewBox="0 0 63 63"><defs><style>.cls-1{fill:#fff;}.cls-2{fill:none;stroke:#fff;stroke-miterlimit:10;stroke-width:3px;}</style></defs><title>Ресурс 24mdpi</title><g id="Слой_2" data-name="Слой 2"><g id="Слой_2-2" data-name="Слой 2"><path class="cls-1" d="M48,23.19a12.51,12.51,0,0,1-3.61,1,6.31,6.31,0,0,0,2.77-3.48,12.61,12.61,0,0,1-4,1.53A6.3,6.3,0,0,0,32.47,28a17.87,17.87,0,0,1-13-6.57,6.3,6.3,0,0,0,1.95,8.4A6.26,6.26,0,0,1,18.6,29v.08a6.29,6.29,0,0,0,5,6.17,6.38,6.38,0,0,1-1.66.22,6.29,6.29,0,0,1-1.18-.11,6.29,6.29,0,0,0,5.88,4.37,12.61,12.61,0,0,1-7.81,2.7,13.19,13.19,0,0,1-1.5-.09A17.83,17.83,0,0,0,27,45.16c11.57,0,17.9-9.59,17.9-17.9,0-.27,0-.54,0-.81A12.75,12.75,0,0,0,48,23.19"/><path class="cls-2" d="M31.5,61.5a30,30,0,1,1,30-30A30,30,0,0,1,31.5,61.5Z"/></g></g></svg>