<svg xmlns="http://www.w3.org/2000/svg" viewBox="0 0 824.32 690.04"><defs><style>.cls-1{font-size:30px;}.cls-1,.cls-13,.cls-39{fill:#fff;}.cls-1,.cls-13{font-family:ProximaNova-Regular, ProximaNova Regular;}.cls-2{letter-spacing:0em;}.cls-3{letter-spacing:0em;}.cls-4{letter-spacing:0em;}.cls-5{letter-spacing:0.02em;}.cls-6{letter-spacing:-0.02em;}.cls-7{letter-spacing:0.03em;}.cls-8{letter-spacing:0em;}.cls-9{letter-spacing:-0.03em;}.cls-10{letter-spacing:0.03em;}.cls-11{letter-spacing:-0.01em;}.cls-12{letter-spacing:-0.01em;}.cls-13{font-size:24px;}.cls-14{letter-spacing:-0.02em;}.cls-15{letter-spacing:0em;}.cls-16{letter-spacing:0em;}.cls-17{letter-spacing:0.02em;}.cls-18{letter-spacing:-0.01em;}.cls-19{letter-spacing:0.01em;}.cls-20{letter-spacing:0em;}.cls-21{letter-spacing:0.01em;}.cls-22{letter-spacing:-0.01em;}.cls-23{letter-spacing:-0.01em;}.cls-24{letter-spacing:0.01em;}.cls-25{letter-spacing:0em;}.cls-26{letter-spacing:0em;}.cls-27{letter-spacing:0em;}.cls-28{letter-spacing:-0.01em;}.cls-29{letter-spacing:-0.01em;}.cls-30{letter-spacing:-0.01em;}.cls-31{letter-spacing:0em;}.cls-32{letter-spacing:-0.02em;}.cls-33{letter-spacing:0.03em;}.cls-34{letter-spacing:0em;}.cls-35{letter-spacing:0em;}.cls-36{letter-spacing:0em;}.cls-37{letter-spacing:-0.01em;}.cls-38,.cls-40{fill:none;stroke:#fff;stroke-width:3px;}.cls-38{stroke-miterlimit:10;}.cls-40{stroke-linejoin:round;}</style></defs><title>Ресурс 28mdpi</title><g id="Слой_2" data-name="Слой 2"><g id="Слой_2-2" data-name="Слой 2"><text class="cls-1" transform="translate(327.19 25.11)"><tspan class="cls-2">В</tspan><tspan class="cls-3" x="16.35" y="0">е</tspan><tspan class="cls-4" x="31.53" y="0">бма</tspan><tspan class="cls-5" x="81" y="0">с</tspan><tspan class="cls-6" x="94.92" y="0">т</tspan><tspan x="106.65" y="0">ер</tspan></text><text class="cls-1" transform="translate(618.27 580.6)"><tspan class="cls-7">К</tspan><tspan class="cls-4" x="17.1" y="0">лие</tspan><tspan class="cls-8" x="63.96" y="0">н</tspan><tspan x="80.25" y="0">т</tspan></text><text class="cls-1" transform="translate(35.74 580.6)"><tspan class="cls-9">Р</tspan><tspan x="15.12" y="0">е</tspan><tspan class="cls-10" x="30.15" y="0">к</tspan><tspan x="45.33" y="0">лам</tspan><tspan class="cls-11" x="94.17" y="0">о</tspan><tspan x="110.43" y="0">д</tspan><tspan class="cls-12" x="126.33" y="0">а</tspan><tspan class="cls-6" x="140.58" y="0">т</tspan><tspan class="cls-3" x="152.31" y="0">е</tspan><tspan class="cls-4" x="167.49" y="0">ль</tspan></text><text class="cls-13" transform="translate(338.83 540.04)"><tspan class="cls-14">С</tspan><tspan x="13.54" y="0">оверша</tspan><tspan class="cls-15" x="93.67" y="0">е</tspan><tspan x="105.6" y="0">т</tspan><tspan class="cls-15" x="14.41" y="28.8">ц</tspan><tspan class="cls-16" x="27.52" y="28.8">е</tspan><tspan x="39.66" y="28.8">левое</tspan><tspan class="cls-15" x="9.68" y="57.6">д</tspan><tspan x="22.31" y="57.6">ей</tspan><tspan class="cls-17" x="47.63" y="57.6">с</tspan><tspan class="cls-18" x="58.76" y="57.6">т</tspan><tspan x="68.46" y="57.6">вие</tspan><tspan x="9.13" y="86.4">(по</tspan><tspan class="cls-19" x="42.11" y="86.4">к</tspan><tspan class="cls-20" x="53.77" y="86.4">уп</tspan><tspan class="cls-21" x="78.06" y="86.4">к</tspan><tspan x="89.79" y="86.4">а,</tspan><tspan class="cls-22" x="2.8" y="115.2">у</tspan><tspan class="cls-17" x="13.88" y="115.2">с</tspan><tspan class="cls-23" x="25.02" y="115.2">т</tspan><tspan x="34.55" y="115.2">анов</tspan><tspan class="cls-24" x="84.4" y="115.2">к</tspan><tspan x="96.13" y="115.2">а,</tspan><tspan x="-11.98" y="144">ре</tspan><tspan class="cls-12" x="13.7" y="144">г</tspan><tspan class="cls-20" x="22.78" y="144">и</tspan><tspan class="cls-17" x="36.07" y="144">с</tspan><tspan class="cls-12" x="47.21" y="144">т</tspan><tspan x="56.9" y="144">рац</tspan><tspan class="cls-25" x="95.33" y="144">и</tspan><tspan class="cls-20" x="108.72" y="144">я)</tspan></text><text class="cls-13" transform="translate(0 242.13)">О<tspan class="cls-26" x="16.54" y="0">п</tspan><tspan class="cls-27" x="29.62" y="0">л</tspan><tspan class="cls-28" x="41.78" y="0">а</tspan><tspan class="cls-20" x="53.02" y="0">чива</tspan><tspan class="cls-15" x="102.24" y="0">е</tspan><tspan class="cls-20" x="114.17" y="0">т </tspan><tspan class="cls-29" x="129.12" y="0">к</tspan><tspan x="140.47" y="0">оми</tspan><tspan class="cls-30" x="182.28" y="0">с</tspan><tspan x="192.89" y="0">сию</tspan><tspan x="28.43" y="28.8">за прив</tspan><tspan class="cls-31" x="107.36" y="28.8">е</tspan><tspan class="cls-15" x="119.46" y="28.8">д</tspan><tspan x="132.08" y="28.8">енно</tspan><tspan class="cls-32" x="183.49" y="28.8">г</tspan><tspan x="192.25" y="28.8">о</tspan><tspan class="cls-33" x="75.05" y="57.6">к</tspan><tspan class="cls-27" x="87.19" y="57.6">лие</tspan><tspan class="cls-8" x="124.68" y="57.6">н</tspan><tspan class="cls-23" x="137.71" y="57.6">т</tspan><tspan x="147.24" y="57.6">а</tspan></text><text class="cls-13" transform="translate(585.5 242.13)">Прив<tspan class="cls-18" x="54.29" y="0">о</tspan><tspan x="67.3" y="0">д</tspan><tspan class="cls-34" x="80.02" y="0">и</tspan><tspan x="93.24" y="0">т по</tspan><tspan class="cls-29" x="134.35" y="0">с</tspan><tspan class="cls-15" x="144.96" y="0">е</tspan><tspan class="cls-18" x="156.89" y="0">т</tspan><tspan class="cls-8" x="166.58" y="0">и</tspan><tspan class="cls-32" x="179.81" y="0">т</tspan><tspan class="cls-35" x="189.19" y="0">е</tspan><tspan x="201.33" y="0">лей</tspan><tspan x="59.83" y="28.8">на </tspan><tspan class="cls-36" x="89.59" y="28.8">ц</tspan><tspan class="cls-16" x="102.69" y="28.8">е</tspan><tspan x="114.84" y="28.8">ле</tspan><tspan class="cls-37" x="139.03" y="28.8">в</tspan><tspan x="150.77" y="28.8">ую</tspan><tspan class="cls-17" x="70.97" y="57.6">с</tspan><tspan class="cls-18" x="82.1" y="57.6">т</tspan><tspan class="cls-27" x="91.8" y="57.6">рани</tspan><tspan class="cls-34" x="143.42" y="57.6">ц</tspan><tspan x="156.55" y="57.6">у</tspan></text><line class="cls-38" x1="216.56" y1="321.42" x2="293.43" y2="244.55"/><polygon class="cls-39" points="292.65 252.37 292.73 245.18 285.57 245.17 288.66 242.11 295.56 242.11 295.56 249.32 292.65 252.37"/><line class="cls-38" x1="483.56" y1="242.13" x2="560.43" y2="319"/><polygon class="cls-39" points="552.61 318.21 559.8 318.29 559.65 311.14 562.56 314.23 562.56 321.11 555.66 321.11 552.61 318.21"/><line class="cls-38" x1="452.56" y1="456.61" x2="343.56" y2="456.61"/><polygon class="cls-39" points="349.54 452.11 344.45 457.11 349.54 462.11 345.22 462.11 340.14 457.11 345.22 452.11 349.54 452.11"/><circle class="cls-38" cx="396.56" cy="133.86" r="75"/><path class="cls-38" d="M341.34,184.19s5.24-24.09,14.49-29.36c5.25-3,20.36-3.88,25.36-7.27C385.71,144.49,386,137,386,137"/><path class="cls-38" d="M451.23,184.19S446,160.1,436.74,154.83c-5.25-3-20.36-3.88-25.36-7.27-4.53-3.07-4.83-10.53-4.83-10.53"/><ellipse class="cls-38" cx="396.28" cy="109.02" rx="25.96" ry="30.49"/><path class="cls-38" d="M372.53,150.61s24.36,25.94,47.1-.12"/><path class="cls-38" d="M379.17,148.39s17.56,16.37,33.81-.09"/><path class="cls-38" d="M387.23,160.37l8.27,8.5a1.94,1.94,0,0,0,2.79,0l8.27-8.5"/><path class="cls-38" d="M370.61,113.55c4.53-2.16,7.86-13.29,7.86-13.29a20.34,20.34,0,0,0,18.42,7.23,43.08,43.08,0,0,0,16.91-6s3.33,10,8,13.26"/><circle class="cls-38" cx="664.56" cy="456.86" r="75"/><path class="cls-39" d="M665.56,473.61c.55,0,.76.38.47.85l-1.44,2.3a.58.58,0,0,1-1.06,0l-1.44-2.3c-.29-.47-.08-.85.47-.85h3m0-3h-3a3.49,3.49,0,0,0-3,5.44l1.44,2.3a3.56,3.56,0,0,0,6.15,0l1.44-2.3a3.49,3.49,0,0,0-3-5.44Z"/><line class="cls-38" x1="662.06" y1="476.61" x2="656.58" y2="531.44"/><path class="cls-38" d="M609.26,507s5.23-24,14.45-29.28c5.23-3,20.31-3.87,25.29-7.25,4.51-3.06,4.81-10.51,4.81-10.51"/><path class="cls-38" d="M718.86,507s-5.23-24-14.45-29.28c-5.23-3-20.31-3.87-25.29-7.25-4.51-3.06-4.82-10.51-4.82-10.51"/><ellipse class="cls-38" cx="664.05" cy="432.08" rx="25.89" ry="30.41"/><path class="cls-40" d="M638.45,431.78c4.52-2.15,7.84-10.84,7.84-10.84,15.35,18.27,30.64,13.25,30.64,13.25a65.63,65.63,0,0,1,2.18-13.25s3.89,7.83,10.37,12"/><line class="cls-38" x1="651.87" y1="468.5" x2="661.28" y2="477.9"/><line class="cls-38" x1="676.94" y1="468.5" x2="667.53" y2="477.9"/><polyline class="cls-38" points="646.3 473.2 653.08 483.53 659.54 476.94"/><polyline class="cls-38" points="682.22 472.2 674.44 483.53 667.97 476.94"/><line class="cls-38" x1="666.56" y1="478.61" x2="674.29" y2="529.61"/><line class="cls-40" x1="134.06" y1="522.11" x2="134.06" y2="532.11"/><circle class="cls-38" cx="134.56" cy="456.86" r="75"/><path class="cls-38" d="M79.26,507s5.23-24,14.45-29.28c5.23-3,20.31-3.87,25.29-7.25,4.51-3.06,4.81-10.51,4.81-10.51"/><path class="cls-38" d="M188.86,507s-5.23-24-14.45-29.28c-5.23-3-20.31-3.87-25.29-7.25-4.51-3.06-4.82-10.51-4.82-10.51"/><ellipse class="cls-38" cx="134.05" cy="432.08" rx="25.89" ry="30.41"/><path class="cls-38" d="M112.86,472.88s21.8,20.32,42-.11"/><polygon class="cls-40" points="108.17 473.98 101.54 481.17 113.43 489.6 107.48 493.39 118.4 505.61 133.85 521.78 108.17 473.98"/><polygon class="cls-40" points="159.34 473.98 165.97 481.17 154.09 489.6 160.03 493.39 149.11 505.61 133.85 521.78 159.34 473.98"/><path class="cls-40" d="M108.28,434.82c6.28,0,8.65-13.88,8.65-13.88s6.89,20.67,31,15.5l-3.6-10.67s6.26,9,8.93,6.3c2.12-2.18,4.91-8.1,4.91-11.14"/></g></g></svg>