<!-- Generator: Adobe Illustrator 21.0.0, SVG Export Plug-In  -->
<svg version="1.1"
	 xmlns="http://www.w3.org/2000/svg" xmlns:xlink="http://www.w3.org/1999/xlink" xmlns:a="http://ns.adobe.com/AdobeSVGViewerExtensions/3.0/"
	 x="0px" y="0px" width="95px" height="95px" viewBox="0 0 95 95" style="enable-background:new 0 0 95 95;" xml:space="preserve">
<style type="text/css">
	.st0{fill:none;stroke:#7DBDFF;stroke-width:3;stroke-miterlimit:10;}
</style>
<defs>
</defs>
<g>
	<g>
		<path class="st0" d="M17.8,82.8c3.1,3.1,8.2,3.1,11.3,0l1.9-2c3.1-3.1,5.5-2.1,5.5,2.3V86c0,4.4,3.8,7.5,8.2,7.5h6.5
			c4.4,0,8.2-3.1,8.2-7.5v-2.8c0-4.4,2.4-5.5,5.5-2.3l1.9,2c3.1,3.1,8.2,3.1,11.3,0l4.6-4.6c3.1-3.1,3.1-8.2,0-11.3l-2-1.9
			c-3.1-3.1-2.1-5.5,2.3-5.5H86c4.4,0,7.5-3.8,7.5-8.2v-6.5c0-4.4-3.1-8.2-7.5-8.2h-2.8c-4.4,0-5.5-2.4-2.3-5.5l2-1.9
			c3.1-3.1,3.1-8.2,0-11.3l-4.6-4.6c-3.1-3.1-8.2-3.1-11.3,0l-1.9,2c-3.1,3.1-5.5,2.1-5.5-2.3V10c0-4.4-3.8-8.5-8.2-8.5h-6.5
			c-4.4,0-8.2,4.1-8.2,8.5v2.8c0,4.4-2.4,5.5-5.5,2.3l-1.9-2c-3.1-3.1-8.2-3.1-11.3,0l-4.6,4.6c-3.1,3.1-3.1,8.2,0,11.3l2,1.9
			c3.1,3.1,2.1,5.5-2.3,5.5H10c-4.4,0-8.5,3.8-8.5,8.2v6.5c0,4.4,4.1,8.2,8.5,8.2h2.8c4.4,0,5.5,2.4,2.3,5.5l-2,1.9
			c-3.1,3.1-3.1,8.2,0,11.3L17.8,82.8z"/>
	</g>
	<circle class="st0" cx="48" cy="48" r="24"/>
</g>
</svg>
