<!-- Generator: Adobe Illustrator 21.0.0, SVG Export Plug-In  -->
<svg version="1.1"
	 xmlns="http://www.w3.org/2000/svg" xmlns:xlink="http://www.w3.org/1999/xlink" xmlns:a="http://ns.adobe.com/AdobeSVGViewerExtensions/3.0/"
	 x="0px" y="0px" width="90px" height="81px" viewBox="0 0 90 81" style="enable-background:new 0 0 90 81;" xml:space="preserve">
<style type="text/css">
	.st0{fill:#7DBDFF;}
</style>
<defs>
</defs>
<g>
	<g>
		<path class="st0" d="M13,50v28H3V50H13 M16,47H0v34h16V47L16,47z"/>
	</g>
	<g>
		<path class="st0" d="M37,17v60H27V17H37 M40,14H24v66h16V14L40,14z"/>
	</g>
	<g>
		<path class="st0" d="M62,29v48H52V29H62 M65,26H49v54h16V26L65,26z"/>
	</g>
	<g>
		<path class="st0" d="M87,3v74H77V3H87 M90,0H74v80h16V0L90,0z"/>
	</g>
</g>
</svg>
