<svg xmlns="http://www.w3.org/2000/svg" viewBox="0 0 63 63"><defs><style>.cls-1{fill:#fff;fill-rule:evenodd;}.cls-2{fill:none;stroke:#fff;stroke-miterlimit:10;stroke-width:3px;}</style></defs><title>Ресурс 26mdpi</title><g id="Слой_2" data-name="Слой 2"><g id="Слой_2-2" data-name="Слой 2"><path class="cls-1" d="M22.44,18.86H33.83c3.75,0,6.94,1.64,6.94,5,0,2.77-1.13,3.85-3.43,5.07.2.14,1.52.5,2,.69a5.38,5.38,0,0,1,1.6,1.05c1.31,1.19,1.55,2.28,1.55,4.14,0,4.32-4.68,6.5-9.19,6.5H22.39Zm6.19,5.88v2.91c2.93,0,5.69.35,5.69-2.5,0-2.63-3.12-2.2-5.7-2.2Zm0,12.39c3.22,0,7.19.47,7.26-2.79s-4.08-2.78-7.26-2.78Z"/><path class="cls-2" d="M31.5,61.5a30,30,0,1,1,30-30A30,30,0,0,1,31.5,61.5Z"/></g></g></svg>